<svg width="121" height="120" viewBox="0 0 121 120" fill="none" xmlns="http://www.w3.org/2000/svg">
<path d="M0.5 60C0.5 26.8629 27.3629 0 60.5 0C93.6371 0 120.5 26.8629 120.5 60C120.5 93.1371 93.6371 120 60.5 120C27.3629 120 0.5 93.1371 0.5 60Z" fill="black"/>
<path d="M24.8696 72.366C24.5094 71.2003 23.8535 70.7645 22.902 71.0586C22.0646 71.3173 21.4727 71.9657 21.1263 73.0038C20.8254 74.0544 20.8101 75.0169 21.0802 75.8911C21.3578 76.7896 21.9477 77.5517 22.8499 78.1774C23.7901 78.7913 24.7361 78.9513 25.6876 78.6573C25.7257 78.6455 25.7447 78.6397 25.7447 78.6397C26.8486 78.2986 27.6158 77.5428 28.0463 76.3723C28.4769 75.2018 28.5689 74.0826 28.3224 73.0149C28.1215 71.9597 27.9047 71.0557 27.6721 70.3029C27.4395 69.5501 27.1386 68.7786 26.7693 67.9882C26.4381 67.1861 25.9929 66.3526 25.4338 65.4879C24.8673 64.5989 24.4025 63.9045 24.0397 63.4048C23.5862 62.7468 22.4785 61.2535 20.7166 58.9249C19.4219 59.4579 18.6214 59.9713 18.3153 60.4649C18.2386 60.6216 18.1014 60.7172 17.9036 60.7517C17.3862 60.8318 17.1967 60.6908 17.3351 60.3288C17.7029 59.6299 18.6221 58.8937 20.0926 58.1201C18.9584 56.6084 18.1212 54.9784 17.5809 53.2299C16.4179 49.466 17.0575 46.4751 19.4995 44.2575C20.2936 43.4535 21.3186 42.8575 22.5747 42.4694C27.0661 41.0816 29.7586 41.766 30.652 44.5226C30.9221 45.3968 30.854 46.2558 30.4475 47.0997C30.2786 47.4977 29.7747 48.0258 28.9356 48.6841C28.0891 49.3181 27.2662 49.7586 26.4668 50.0055C25.6675 50.2525 24.8996 50.2637 24.163 50.039C23.4264 49.8144 22.9644 49.3985 22.7768 48.7914C22.3936 47.6861 22.9823 46.8924 24.5429 46.4102C24.8854 46.3043 25.1135 46.3004 25.2272 46.3983C25.3333 46.4719 25.3481 46.587 25.2714 46.7437C25.2253 46.8644 25.0309 46.9776 24.6884 47.0835C23.9121 47.2701 23.6215 47.6791 23.8166 48.3105C24.0572 48.9544 24.8627 49.0647 26.233 48.6413C26.5375 48.5472 26.7857 48.271 26.9777 47.8127C27.2077 47.3425 27.3803 46.9567 27.4956 46.655C27.6415 46.3174 27.6206 45.845 27.433 45.2379C26.8853 43.4652 25.3934 42.9551 22.9574 43.7078C21.8155 44.0606 21.088 44.4051 20.7749 44.7413C19.4469 45.9763 18.8142 47.3024 18.8768 48.7195C18.9255 49.8218 19.1749 51.1014 19.6251 52.5584C20.0753 54.0155 20.9471 55.555 22.2405 57.1771C22.7204 56.9757 23.436 56.7279 24.3876 56.4339L26.4318 55.7624C27.0027 55.586 27.4064 55.4081 27.6428 55.2286C27.9098 55.0131 27.8688 54.813 27.5199 54.6282C27.1709 54.4434 27.0731 54.1943 27.2264 53.8809C27.3723 53.5432 27.6508 53.2975 28.062 53.1439C28.4732 52.9902 28.8913 52.994 29.3164 53.1553C29.9232 53.4998 30.2792 53.8421 30.3842 54.1821C30.4893 54.522 30.408 54.8664 30.1405 55.2151C29.6279 55.9853 28.5342 56.6291 26.8595 57.1466L24.7478 57.5995L23.0349 58.1288C23.3603 58.5071 23.9355 59.154 24.7604 60.0696C28.0603 63.732 30.1041 66.8381 30.8919 69.3879C31.2971 70.6992 31.5554 71.6702 31.6669 72.3008C31.9273 73.6834 31.5634 75.2723 30.5753 77.0673C29.5871 78.8623 28.1642 80.0601 26.3066 80.6607C25.2409 80.99 24.1422 81.0103 23.0105 80.7215C21.9244 80.4452 21.037 79.9346 20.3482 79.1898C19.6288 78.481 19.1416 77.7138 18.8865 76.8881C18.3912 75.2854 18.8275 73.6609 20.1952 72.0146C20.9822 71.0532 21.8135 70.4372 22.6889 70.1667C23.7928 69.8256 24.7272 70.0158 25.4921 70.7371C25.7875 71.0183 25.9727 71.2803 26.0477 71.5231C26.1227 71.7659 26.1752 71.9359 26.2052 72.0331C26.3928 72.6402 26.3475 73.5054 26.0691 74.6289C25.7983 75.7767 25.2823 76.4682 24.521 76.7034C23.8359 76.9151 23.2129 76.7883 22.6522 76.3231C22.4855 76.1884 22.4558 76.0247 22.563 75.8319C22.7083 75.6274 22.9142 75.484 23.1806 75.4017C23.5232 75.2958 23.8003 75.3831 24.0121 75.6635L24.2284 75.7563C24.7538 75.5674 25.0256 75.0977 25.0439 74.3471C25.1077 73.6092 25.0496 72.9488 24.8696 72.366Z" fill="white"/>
<path d="M45.1714 52.4064C46.123 52.1123 47.0496 52.3448 47.9512 53.1037C48.8909 53.8508 49.5108 54.7101 49.811 55.6814C50.1111 56.6528 49.9577 57.9106 49.3507 59.4548C48.7362 60.9748 47.7961 62.183 46.5303 63.0796C45.4098 63.7716 44.6402 64.1823 44.2215 64.3117C42.6459 64.7453 40.9388 64.8205 39.1 64.5374C37.9147 64.345 36.8332 63.8811 35.8555 63.1457C34.8702 62.386 34.2725 61.6662 34.0624 60.9863C33.8523 60.3064 33.7348 59.3185 33.7097 58.0228C33.7151 56.691 34.3524 55.1773 35.6215 53.4816C36.8519 51.931 38.3236 50.891 40.0364 50.3618C41.0641 50.0442 41.9768 49.9618 42.7745 50.1143C43.6027 50.2308 44.0994 50.5562 44.2645 51.0905C44.4295 51.6247 44.393 52.1813 44.155 52.7603C43.9549 53.3276 43.5695 53.6994 42.9985 53.8758C42.9605 53.8876 42.9224 53.8993 42.8843 53.9111C41.9328 54.2051 40.8995 54.0322 39.7845 53.3925C39.6403 53.3306 39.5912 53.2394 39.6373 53.1187C39.7215 52.9863 39.8397 52.8966 39.992 52.8495C40.1748 52.7664 40.3383 52.7558 40.4825 52.8177C40.6798 52.9163 41.0253 53.0224 41.519 53.1358C42.0508 53.2376 42.4499 53.2472 42.7163 53.1649C43.1731 53.0238 43.3463 52.5047 43.2359 51.6078C43.0709 51.0735 42.1319 51.071 40.4191 51.6003C40.0765 51.7061 39.7985 51.8186 39.5852 51.9377C39.4098 52.0451 39.2688 52.1286 39.1622 52.1881C39.0555 52.2477 38.9373 52.3374 38.8075 52.4573C38.7158 52.5655 38.6394 52.6556 38.5783 52.7277C38.5097 52.7755 38.4143 52.8714 38.292 53.0156C38.2003 53.1238 38.143 53.208 38.1199 53.2683C37.9746 53.4728 37.7376 53.7855 37.409 54.2062C37.1184 54.6152 36.9189 55.0493 36.8106 55.5084C36.7403 55.9558 36.7684 56.519 36.8949 57.1982C37.0519 57.8413 37.1334 58.3748 37.1392 58.7986C37.1831 59.2107 37.2276 59.4896 37.2726 59.6353L37.6328 60.8009C37.9104 61.6994 38.1591 62.2344 38.3789 62.4059C38.5987 62.5774 38.7844 62.7063 38.9361 62.7924C39.2545 63.0132 39.6113 63.1557 40.0064 63.2199C41.7845 63.4419 43.0923 63.4235 43.9297 63.1648C44.8052 62.8943 45.6627 62.3633 46.5023 61.5719C47.3724 60.7444 47.9648 59.9628 48.2796 59.2271C48.8099 57.8396 48.9137 56.6237 48.5911 55.5795C48.261 54.511 47.5301 53.8324 46.3984 53.5436C45.798 53.4897 45.516 53.6566 45.5524 54.0444C45.5749 54.1172 45.7226 54.2578 45.9955 54.4661C46.2608 54.6502 46.3018 54.8503 46.1184 55.0666C45.9731 55.2711 45.7292 55.4263 45.3866 55.5321C45.0746 55.6019 44.8428 55.5937 44.6911 55.5076C44.5699 55.3854 44.3804 55.2445 44.1226 55.0847C43.9028 54.9132 43.7592 54.7182 43.6916 54.4996C43.6241 54.2811 43.7587 53.9069 44.0954 53.3773C44.4702 52.8358 44.8288 52.5122 45.1714 52.4064Z" fill="white"/>
<path d="M61.914 47.2333C62.8656 46.9392 63.7922 47.1717 64.6938 47.9306C65.6335 48.6777 66.2534 49.537 66.5535 50.5083C66.8537 51.4797 66.7002 52.7375 66.0933 54.2817C65.4788 55.8017 64.5386 57.0099 63.2729 57.9065C62.1524 58.5985 61.3828 59.0092 60.9641 59.1386C59.3885 59.5722 57.6813 59.6474 55.8426 59.3643C54.6573 59.1719 53.5758 58.708 52.598 57.9726C51.6128 57.2129 51.0151 56.4931 50.805 55.8132C50.5949 55.1333 50.4773 54.1454 50.4522 52.8497C50.4577 51.5179 51.095 50.0042 52.364 48.3085C53.5945 46.7579 55.0661 45.7179 56.779 45.1887C57.8067 44.8711 58.7194 44.7887 59.5171 44.9412C60.3453 45.0577 60.842 45.3831 61.007 45.9174C61.1721 46.4516 61.1356 47.0082 60.8975 47.5872C60.6975 48.1545 60.312 48.5263 59.7411 48.7027C59.703 48.7145 59.665 48.7262 59.6269 48.738C58.6753 49.032 57.642 48.8591 56.527 48.2194C56.3828 48.1575 56.3338 48.0663 56.3799 47.9456C56.4641 47.8132 56.5823 47.7235 56.7345 47.6764C56.9174 47.5933 57.0809 47.5827 57.2251 47.6446C57.4223 47.7432 57.7678 47.8493 58.2616 47.9627C58.7934 48.0645 59.1925 48.0742 59.4589 47.9918C59.9157 47.8507 60.0889 47.3316 59.9785 46.4347C59.8134 45.9004 58.8745 45.8979 57.1616 46.4272C56.8191 46.533 56.5411 46.6455 56.3277 46.7646C56.1524 46.872 56.0114 46.9555 55.9047 47.015C55.7981 47.0746 55.6798 47.1643 55.5501 47.2842C55.4584 47.3924 55.382 47.4825 55.3209 47.5546C55.2523 47.6024 55.1568 47.6983 55.0346 47.8425C54.9429 47.9507 54.8856 48.0349 54.8625 48.0952C54.7172 48.2997 54.4802 48.6124 54.1516 49.0331C53.861 49.4421 53.6615 49.8762 53.5532 50.3353C53.4829 50.7827 53.511 51.3459 53.6375 52.0251C53.7945 52.6682 53.8759 53.2017 53.8818 53.6255C53.9257 54.0376 53.9702 54.3165 54.0152 54.4622L54.3754 55.6278C54.653 56.5263 54.9017 57.0613 55.1215 57.2328C55.3412 57.4043 55.527 57.5332 55.6787 57.6193C55.9971 57.8401 56.3539 57.9826 56.7489 58.0468C58.5271 58.2688 59.8349 58.2505 60.6723 57.9917C61.5478 57.7212 62.4053 57.1902 63.2448 56.3988C64.115 55.5713 64.7074 54.7897 65.0222 54.054C65.5525 52.6665 65.6563 51.4506 65.3337 50.4064C65.0035 49.3379 64.2726 48.6593 63.141 48.3705C62.5406 48.3166 62.2586 48.4835 62.295 48.8713C62.3175 48.9441 62.4652 49.0847 62.738 49.293C63.0034 49.4771 63.0444 49.6772 62.861 49.8935C62.7157 50.098 62.4718 50.2532 62.1292 50.359C61.8172 50.4288 61.5854 50.4206 61.4337 50.3345C61.3125 50.2123 61.123 50.0714 60.8652 49.9116C60.6454 49.7401 60.5017 49.5451 60.4342 49.3265C60.3667 49.108 60.5013 48.7338 60.838 48.2042C61.2127 47.6627 61.5714 47.3391 61.914 47.2333Z" fill="white"/>
<path d="M86.1542 51.9539L86.8844 51.8879C86.9605 51.8644 87.1243 51.7872 87.3757 51.6563C87.7188 51.4172 87.9129 51.3706 87.9579 51.5163C88.0555 51.832 87.9021 52.1454 87.4979 52.4565C87.1012 52.7919 86.8076 52.989 86.6173 53.0478C85.6657 53.3418 84.7118 53.2907 83.7554 52.8946C82.7991 52.4984 82.0674 52.0195 81.5603 51.458C81.0532 50.8964 80.4368 50.1159 79.711 49.1164C79.5168 50.1075 79.4082 50.6332 79.3852 50.6935C79.3621 50.7538 79.2359 50.9525 79.0064 51.2894C78.5855 51.9515 78.1542 52.3774 77.7124 52.5671C77.3087 52.745 76.9166 52.8928 76.5359 53.0104C74.8612 53.5279 73.0554 53.5538 71.1185 53.0881C68.726 52.4973 67.2784 51.3883 66.7757 49.7613C66.5956 49.1785 66.4619 48.4084 66.3746 47.4511C66.2873 46.4938 66.6908 45.4381 67.5851 44.2839C68.6017 42.9855 69.795 42.1247 71.1653 41.7013C71.8505 41.4896 72.6868 41.4972 73.6742 41.7242C74.8364 41.9769 75.5338 42.4797 75.7664 43.2325C75.999 43.9853 75.8322 44.795 75.2661 45.6616C75.0516 46.047 74.6892 46.3585 74.1788 46.596C73.699 46.7975 73.1436 46.8893 72.5126 46.8714C71.8741 46.8293 71.4831 46.7107 71.3394 46.5157C71.1883 46.2964 71.1092 46.108 71.1022 45.9505C71.1333 45.7813 71.1988 45.5882 71.2985 45.3711C71.3907 45.1298 71.4371 44.9426 71.4377 44.8094C71.4838 44.6887 71.583 44.6049 71.7352 44.5578C71.918 44.4748 72.0625 44.47 72.1686 44.5436C72.3053 44.5812 72.3734 44.6666 72.3729 44.7998C72.257 45.2346 72.2822 45.5859 72.4484 45.8538C72.5089 45.9149 72.6874 45.9529 72.9839 45.9677C73.691 45.962 74.1371 45.6513 74.3221 45.0355C74.5376 44.3836 74.6116 43.9484 74.5441 43.7299C74.4766 43.5113 74.3938 43.3108 74.2957 43.1283C74.1976 42.9457 73.8218 42.8091 73.1683 42.7184C72.5148 42.6277 72.0739 42.6176 71.8455 42.6882C70.2088 43.1939 69.2427 44.2506 68.9472 45.8582C68.745 46.9582 68.7264 47.7753 68.8915 48.3095C69.0566 48.8438 69.2184 49.2327 69.3771 49.4763C69.9056 50.3771 70.8533 51.0153 72.2203 51.391C73.5798 51.7424 74.8495 51.7358 76.0295 51.3712C76.2579 51.3007 76.4635 51.2238 76.6463 51.1408C76.8291 51.0577 77.0352 50.8477 77.2647 50.5107C77.5322 50.1621 77.796 49.8012 78.0561 49.4283C78.3086 49.031 78.4807 48.7783 78.5724 48.6702C78.6565 48.5378 78.7338 48.2479 78.804 47.8005C77.8526 46.2058 77.2006 44.8377 76.8479 43.6964C76.4878 42.5308 76.2592 41.7235 76.1622 41.2746C76.0652 40.8258 75.98 40.2801 75.9066 39.6378C75.8713 38.9836 75.8352 38.5293 75.7982 38.2747C75.5416 35.9598 75.9538 33.7176 77.0347 31.548C77.3414 30.9212 77.7612 30.5255 78.2941 30.3608C78.3322 30.3491 78.3702 30.3373 78.4083 30.3256C79.6638 30.0706 80.573 30.8538 81.1357 32.6751C81.856 35.0063 81.6954 37.9955 80.6541 41.6425C80.4766 42.2826 80.2036 43.0187 79.8353 43.8507C80.211 44.9317 80.614 45.8314 81.0445 46.5497C81.4749 47.2679 81.8297 47.8766 82.109 48.3755C82.3807 48.8502 82.6375 49.2763 82.8792 49.6538C83.1135 50.0071 83.4235 50.4034 83.8095 50.8428C84.5583 51.7819 85.3399 52.1523 86.1542 51.9539ZM79.32 41.5758C80.2472 37.9641 80.3244 34.9076 79.5516 32.4064C79.3265 31.6779 78.9821 31.3055 78.5184 31.2891C78.4803 31.3009 78.465 31.3189 78.4725 31.3432C78.51 31.4646 78.5057 31.5856 78.4596 31.7063C78.4135 31.827 78.3596 31.9899 78.298 32.1952C78.2363 32.4005 78.1631 32.6359 78.0784 32.9015C78.0242 33.131 77.9885 33.4879 77.9713 33.972C77.9541 34.4562 77.9487 34.8436 77.9551 35.1342C77.9996 35.4131 78.0738 35.8557 78.1778 36.4621C78.2742 37.0441 78.3514 37.6986 78.4092 38.4256C78.5051 39.1408 78.7626 40.3116 79.1817 41.9378L79.32 41.5758Z" fill="white"/>
<path d="M42.9907 86.7584L42.8452 86.0851C42.8077 85.9637 42.8575 85.8551 42.9948 85.7595C43.132 85.6639 43.2652 85.6228 43.3944 85.636C43.5617 85.6376 43.6641 85.699 43.7016 85.8205C43.8667 86.3547 44.1358 86.5509 44.5089 86.409C44.9507 86.2193 45.2297 85.8404 45.3461 85.2724C45.3772 85.1032 45.374 84.9579 45.3365 84.8365L45.0076 84.3794C44.9176 84.088 44.7134 83.8319 44.3949 83.6111C44.0765 83.3902 43.727 83.3386 43.3464 83.4562C43.1561 83.515 42.9687 83.7857 42.7842 84.2684C42.1414 85.2917 41.9888 86.3497 42.3264 87.4425C42.664 88.5352 43.4287 89.3231 44.6204 89.8062C44.666 89.8187 44.7228 89.8677 44.7909 89.953C44.9345 90.1481 45.1015 90.2162 45.2918 90.1574C45.9008 89.9692 46.5573 89.3274 47.2613 88.2321C48.3567 86.2443 48.6343 84.3762 48.094 82.6277C47.8614 81.8749 47.5404 81.3756 47.1308 81.1297C46.7593 80.8721 46.0297 80.8049 44.942 80.9282C44.6605 80.9619 44.048 81.0713 43.1045 81.2565C42.1535 81.4173 41.4726 81.508 41.062 81.5284C40.6894 81.5371 40.2603 81.4303 39.7746 81.208C39.2889 80.9856 38.9298 80.498 38.6972 79.7452C38.4646 78.9924 38.7427 77.9355 39.5314 76.5746C40.5651 74.792 41.8813 73.6538 43.4799 73.1599C44.2412 72.9246 45.0775 72.9323 45.9888 73.1827C46.9382 73.4214 47.5254 73.905 47.7505 74.6335C47.9681 75.3378 47.8852 76.0816 47.5019 76.8652C47.1491 77.6126 46.554 78.1157 45.7166 78.3744C45.3359 78.4921 44.9103 78.464 44.4396 78.2902C43.9995 78.0803 43.7342 77.8963 43.6436 77.7381C43.5836 77.5438 43.5613 77.4043 43.5769 77.3197C43.623 77.1991 43.7072 77.0667 43.8294 76.9225C43.9897 76.7665 44.0967 76.6404 44.1503 76.544C44.242 76.4359 44.3677 76.3704 44.5274 76.3477C44.7253 76.3132 44.8582 76.3386 44.9263 76.424C45.0249 76.4733 45.0321 76.5642 44.948 76.6966L45.0509 76.6249C44.8064 76.9132 44.7067 77.1303 44.7517 77.276C44.7892 77.3974 44.8876 77.5133 45.0468 77.6237C45.206 77.7341 45.3617 77.7658 45.514 77.7188C46.123 77.5306 46.5503 77.1592 46.7959 76.6045C47.072 76.0137 47.135 75.4755 46.985 74.9898C46.8349 74.5041 46.4256 74.1917 45.7572 74.0524C45.0887 73.9131 44.5831 73.8964 44.2406 74.0022C42.8703 74.4256 41.8366 75.2637 41.1396 76.5166C40.4426 77.7694 40.2104 78.7722 40.443 79.525C40.6231 80.1078 41.0857 80.3905 41.8309 80.3731C42.4088 80.3542 43.0515 80.2753 43.7592 80.1364C44.4668 79.9976 44.9386 79.905 45.1745 79.8587C46.5892 79.7142 47.6456 79.8268 48.3435 80.1964C49.0415 80.566 49.5293 81.2 49.8069 82.0985C50.4596 84.2112 50.2343 86.3159 49.1309 88.4126C48.6328 89.3645 48.3226 89.9126 48.2003 90.0568C47.4363 90.9579 46.7308 91.5084 46.0837 91.7083C45.4747 91.8965 44.8435 91.9452 44.19 91.8545C43.5821 91.7763 43.1074 91.657 42.7659 91.4965C41.1191 90.755 40.0706 89.6558 39.6204 88.1987C39.1702 86.7417 39.4004 85.3272 40.3107 83.9552C40.7166 83.2446 41.6047 82.6776 42.975 82.2542C43.013 82.2424 43.0511 82.2307 43.0892 82.2189C43.8124 81.9954 44.4886 82.0924 45.118 82.5098C45.7473 82.9272 46.1482 83.4152 46.3208 83.9737L46.25 84.5542C46.4001 85.0399 46.181 85.613 45.5929 86.2736C45.0047 86.9341 44.5394 87.3173 44.1968 87.4232C43.702 87.5761 43.2999 87.3545 42.9907 86.7584Z" fill="white"/>
<path d="M57.603 74.0234C58.4785 73.7529 59.3981 73.8279 60.362 74.2484C61.3564 74.6328 61.9549 75.1528 62.1575 75.8085C62.3525 76.4398 62.1707 77.201 61.6121 78.0918C61.0914 78.971 60.2639 79.5991 59.1296 79.9762C58.5967 80.1408 57.5888 80.2527 56.106 80.3118C54.6537 80.3349 53.6161 80.2831 52.9932 80.1563C52.3985 82.415 53.2623 84.0635 55.5845 85.1017C56.5028 85.5096 57.3997 85.5784 58.2751 85.3079C59.1506 85.0374 60.0499 84.5068 60.9731 83.7161C61.8888 82.9011 62.4086 82.2218 62.5325 81.678C62.6944 81.1226 62.9695 80.7982 63.3576 80.7048C63.5935 80.6586 63.7339 80.7083 63.779 80.854C63.824 80.9997 63.8079 81.2175 63.7307 81.5073C63.4984 82.5102 62.9623 83.4739 62.1221 84.3985C61.3201 85.3114 60.31 85.956 59.092 86.3323C57.2194 86.8843 55.5503 86.9478 54.0847 86.5228C52.6646 86.1103 51.5084 85.337 50.6159 84.2028C50.1207 82.6001 50.2682 80.9185 51.0586 79.158C51.887 77.3857 53.3755 75.9282 55.5243 74.7854C56.0346 74.5479 56.7276 74.2939 57.603 74.0234ZM59.0428 78.8857C59.6137 78.7093 60.022 78.3437 60.2676 77.789C60.5512 77.2225 60.6293 76.7329 60.5017 76.32C60.3742 75.9072 59.9802 75.5767 59.3197 75.3286C58.6973 75.0686 58.1768 75.0033 57.7581 75.1327C57.3394 75.2621 56.8899 75.4941 56.4095 75.8287C54.7942 76.6736 53.7364 77.8384 53.2361 79.3231C53.2742 79.3114 53.3881 79.3427 53.5779 79.417C53.7982 79.4554 54.6233 79.4266 56.053 79.3306C57.4753 79.2104 58.4719 79.0621 59.0428 78.8857Z" fill="white"/>
<path d="M68.4775 74.0153L68.0394 72.3949C67.6493 71.1322 67.1124 70.4069 66.4289 70.219C66.0644 70.1188 65.6157 70.1511 65.0828 70.3157C64.0551 70.6333 63.1627 71.3213 62.4057 72.3799C61.6411 73.4142 61.3639 74.2713 61.574 74.9513C61.664 75.2427 61.9173 75.59 62.3338 75.9934C62.7428 76.3725 63.1757 76.4914 63.6325 76.3503C64.1198 76.1731 64.5353 75.8984 64.8789 75.5262C65.2151 75.1297 65.3344 74.7737 65.2369 74.458C65.1318 74.118 64.9882 73.923 64.8059 73.8729C64.6617 73.811 64.403 73.851 64.0299 73.9929C63.6873 74.0988 63.4439 74.1208 63.2997 74.0589C63.1861 73.961 63.1486 73.8396 63.1872 73.6947C63.2258 73.5497 63.3593 73.442 63.5877 73.3714L63.5764 73.335C63.6906 73.2997 63.9761 73.2115 64.4328 73.0704C64.9277 72.9175 65.3573 72.8911 65.7219 72.9913C66.0789 73.0672 66.3475 73.3965 66.5275 73.9794C66.7001 74.5379 66.5076 75.1294 65.95 75.7539C65.3849 76.3542 64.6341 76.8256 63.6975 77.1682C63.1266 77.3446 62.4125 77.1928 61.5554 76.7127C60.7288 76.1967 60.2554 75.7444 60.1354 75.3559C59.8883 74.4213 60.2428 73.2743 61.1987 71.9149C62.1853 70.5194 63.3065 69.6276 64.5626 69.2395C65.8568 68.8396 67.0276 68.8503 68.0751 69.2715C69.783 69.9409 70.9792 71.1807 71.6636 72.991L72.1138 74.448C73.1316 70.9945 73.763 69.057 74.008 68.6354C75.0803 66.708 76.4349 65.4914 78.0716 64.9857C78.8709 64.7387 79.6764 64.849 80.488 65.3164C81.3301 65.7479 81.83 66.2186 81.9875 66.7286C82.3327 67.8456 82.4203 68.7363 82.2503 69.4007C81.6717 71.4416 81.66 73.3606 82.2152 75.1576C82.8755 77.2945 84.0017 78.9151 85.5937 80.0193C86.0505 79.8782 86.4963 79.6341 86.9311 79.2869C87.4114 78.9523 87.739 78.7979 87.9138 78.8237C88.1266 78.8377 88.2518 78.9054 88.2893 79.0269C88.3268 79.1483 88.2616 79.2748 88.0938 79.4065C87.1556 80.1486 86.3439 80.6255 85.6588 80.8372C84.9812 81.0732 84.2331 80.8787 83.4145 80.2537C83.3009 80.1558 83.0546 79.9659 82.6756 79.684C82.3041 79.4263 82.0085 79.2118 81.7887 79.0402C81.5995 78.8327 81.3609 78.6005 81.0731 78.3436C80.4823 77.7812 80.1195 77.2815 79.9844 76.8444C79.8493 76.4073 79.748 76.0795 79.6805 75.8609C78.8852 73.2869 78.7342 71.1787 79.2275 69.5366C79.5359 68.5103 79.6185 67.833 79.4754 67.5048C79.1903 66.582 78.8574 66.1794 78.4767 66.297C77.1826 66.6969 76.1827 67.6443 75.4771 69.1392C74.9404 70.2361 74.472 71.3518 74.072 72.4862C73.3636 74.6471 72.9817 77.8642 72.9261 82.1377C72.9331 82.2952 72.75 82.4449 72.3768 82.5867C72.0418 82.7169 71.688 82.7863 71.3154 82.795C70.9809 82.792 70.7911 82.7176 70.7461 82.5719C70.4867 80.9229 70.102 79.2727 69.5918 77.6214C69.074 75.9458 68.7026 74.7438 68.4775 74.0153Z" fill="white"/>
<path d="M88.9252 72.5656L88.7797 71.8923C88.7421 71.7709 88.792 71.6624 88.9293 71.5668C89.0665 71.4711 89.1997 71.43 89.3289 71.4433C89.4962 71.4448 89.5986 71.5063 89.6361 71.6277C89.8012 72.1619 90.0703 72.3581 90.4434 72.2162C90.8851 72.0265 91.1642 71.6477 91.2806 71.0797C91.3117 70.9104 91.3085 70.7651 91.271 70.6437L90.9421 70.1867C90.8521 69.8953 90.6479 69.6391 90.3294 69.4183C90.011 69.1975 89.6615 69.1458 89.2809 69.2634C89.0906 69.3222 88.9032 69.593 88.7187 70.0756C88.0759 71.0989 87.9232 72.1569 88.2609 73.2497C88.5985 74.3424 89.3632 75.1304 90.5549 75.6134C90.6004 75.6259 90.6573 75.6749 90.7253 75.7603C90.869 75.9553 91.036 76.0234 91.2263 75.9646C91.8353 75.7764 92.4918 75.1347 93.1958 74.0393C94.2912 72.0515 94.5687 70.1834 94.0285 68.435C93.7959 67.6822 93.4748 67.1828 93.0653 66.9369C92.6938 66.6793 91.9642 66.6121 90.8765 66.7354C90.595 66.7691 89.9825 66.8786 89.039 67.0637C88.088 67.2245 87.4071 67.3152 86.9965 67.3357C86.6239 67.3444 86.1948 67.2376 85.7091 67.0152C85.2234 66.7928 84.8643 66.3052 84.6317 65.5524C84.3991 64.7996 84.6772 63.7428 85.4659 62.3818C86.4996 60.5993 87.8158 59.461 89.4144 58.9671C90.1757 58.7319 91.012 58.7395 91.9233 58.99C92.8727 59.2287 93.4599 59.7123 93.685 60.4408C93.9026 61.145 93.8197 61.8889 93.4364 62.6724C93.0836 63.4198 92.4885 63.9229 91.6511 64.1817C91.2704 64.2993 90.8448 64.2712 90.3741 64.0974C89.934 63.8875 89.6687 63.7035 89.5781 63.5453C89.518 63.351 89.4958 63.2116 89.5114 63.127C89.5575 63.0063 89.6417 62.8739 89.7639 62.7297C89.9242 62.5738 90.0312 62.4476 90.0848 62.3512C90.1765 62.2431 90.3022 62.1777 90.4619 62.1549C90.6598 62.1204 90.7927 62.1458 90.8608 62.2312C90.9594 62.2805 90.9666 62.3714 90.8825 62.5038L90.9854 62.4321C90.7409 62.7204 90.6412 62.9375 90.6862 63.0832C90.7237 63.2046 90.8221 63.3205 90.9813 63.4309C91.1405 63.5414 91.2962 63.573 91.4485 63.526C92.0575 63.3378 92.4848 62.9664 92.7304 62.4117C93.0065 61.8209 93.0695 61.2827 92.9195 60.797C92.7694 60.3114 92.3601 59.9989 91.6916 59.8596C91.0231 59.7203 90.5176 59.7036 90.1751 59.8094C88.8048 60.2328 87.7711 61.0709 87.0741 62.3238C86.3771 63.5766 86.1449 64.5795 86.3775 65.3323C86.5576 65.9151 87.0202 66.1978 87.7653 66.1803C88.3432 66.1614 88.986 66.0825 89.6937 65.9437C90.4013 65.8048 90.8731 65.7122 91.109 65.666C92.5237 65.5215 93.5801 65.634 94.278 66.0036C94.976 66.3732 95.4637 67.0072 95.7414 67.9057C96.3941 70.0184 96.1688 72.1231 95.0654 74.2198C94.5673 75.1717 94.2571 75.7198 94.1348 75.864C93.3708 76.7651 92.6653 77.3156 92.0182 77.5156C91.4092 77.7037 90.778 77.7525 90.1245 77.6618C89.5166 77.5836 89.0419 77.4642 88.7004 77.3037C87.0536 76.5622 86.0051 75.463 85.5549 74.006C85.1047 72.5489 85.3348 71.1344 86.2452 69.7625C86.6511 69.0518 87.5392 68.4848 88.9095 68.0614C88.9475 68.0496 88.9856 68.0379 89.0237 68.0261C89.7469 67.8027 90.4231 67.8996 91.0524 68.317C91.6818 68.7344 92.0827 69.2224 92.2553 69.7809L92.1845 70.3614C92.3345 70.8471 92.1155 71.4202 91.5274 72.0808C90.9392 72.7414 90.4739 73.1246 90.1313 73.2304C89.6365 73.3833 89.2344 73.1617 88.9252 72.5656Z" fill="white"/>
<path d="M103.537 59.8307C104.413 59.5602 105.333 59.6351 106.296 60.0556C107.291 60.44 107.889 60.96 108.092 61.6157C108.287 62.2471 108.105 63.0082 107.547 63.8991C107.026 64.7782 106.198 65.4063 105.064 65.7834C104.531 65.948 103.523 66.0599 102.04 66.1191C100.588 66.1421 99.5506 66.0903 98.9277 65.9635C98.333 68.2223 99.1968 69.8707 101.519 70.9089C102.437 71.3169 103.334 71.3856 104.21 71.1151C105.085 70.8446 105.984 70.314 106.908 69.5233C107.823 68.7083 108.343 68.029 108.467 67.4853C108.629 66.9298 108.904 66.6054 109.292 66.5121C109.528 66.4658 109.668 66.5155 109.713 66.6612C109.758 66.8069 109.742 67.0247 109.665 67.3146C109.433 68.3174 108.897 69.2811 108.057 70.2058C107.255 71.1186 106.245 71.7632 105.027 72.1396C103.154 72.6916 101.485 72.755 100.019 72.33C98.5991 71.9175 97.4428 71.1442 96.5504 70.0101C96.0551 68.4073 96.2027 66.7257 96.9931 64.9652C97.8215 63.1929 99.31 61.7354 101.459 60.5927C101.969 60.3552 102.662 60.1012 103.537 59.8307ZM104.977 64.6929C105.548 64.5165 105.956 64.1509 106.202 63.5962C106.486 63.0297 106.564 62.5401 106.436 62.1273C106.309 61.7144 105.915 61.384 105.254 61.1358C104.632 60.8758 104.111 60.8106 103.693 60.9399C103.274 61.0693 102.824 61.3013 102.344 61.6359C100.729 62.4809 99.6709 63.6457 99.1706 65.1303C99.2087 65.1186 99.3226 65.1499 99.5124 65.2243C99.7327 65.2626 100.558 65.2338 101.987 65.1378C103.41 65.0176 104.406 64.8693 104.977 64.6929Z" fill="white"/>
</svg>
